<svg xmlns="http://www.w3.org/2000/svg" xmlns:xlink="http://www.w3.org/1999/xlink" width="344" height="343" viewBox="0 0 344 343"><defs><clipPath id="a"><rect width="344" height="343" fill="none"/></clipPath></defs><g opacity="0.151" clip-path="url(#a)"><g transform="translate(-210 -1470)"><circle cx="5" cy="5" r="5" transform="translate(210 1470)" fill="#454e56"/></g><g transform="translate(-180 -1470)"><circle cx="5" cy="5" r="5" transform="translate(210 1470)" fill="#454e56"/></g><g transform="translate(-150 -1470)"><circle cx="5" cy="5" r="5" transform="translate(210 1470)" fill="#454e56"/></g><g transform="translate(-120 -1470)"><circle cx="5" cy="5" r="5" transform="translate(210 1470)" fill="#454e56"/></g><g transform="translate(-90 -1470)"><circle cx="5" cy="5" r="5" transform="translate(210 1470)" fill="#454e56"/></g><g transform="translate(-60 -1470)"><circle cx="5" cy="5" r="5" transform="translate(210 1470)" fill="#454e56"/></g><g transform="translate(-30 -1470)"><circle cx="5" cy="5" r="5" transform="translate(210 1470)" fill="#454e56"/></g><g transform="translate(0 -1470)"><circle cx="5" cy="5" r="5" transform="translate(210 1470)" fill="#454e56"/></g><g transform="translate(30 -1470)"><circle cx="5" cy="5" r="5" transform="translate(210 1470)" fill="#454e56"/></g><g transform="translate(60 -1470)"><circle cx="5" cy="5" r="5" transform="translate(210 1470)" fill="#454e56"/></g><g transform="translate(90 -1470)"><circle cx="5" cy="5" r="5" transform="translate(210 1470)" fill="#454e56"/></g><g transform="translate(120 -1470)"><circle cx="5" cy="5" r="5" transform="translate(210 1470)" fill="#454e56"/></g><g transform="translate(-210 -1440)"><circle cx="5" cy="5" r="5" transform="translate(210 1470)" fill="#454e56"/></g><g transform="translate(-180 -1440)"><circle cx="5" cy="5" r="5" transform="translate(210 1470)" fill="#454e56"/></g><g transform="translate(-150 -1440)"><circle cx="5" cy="5" r="5" transform="translate(210 1470)" fill="#454e56"/></g><g transform="translate(-120 -1440)"><circle cx="5" cy="5" r="5" transform="translate(210 1470)" fill="#454e56"/></g><g transform="translate(-90 -1440)"><circle cx="5" cy="5" r="5" transform="translate(210 1470)" fill="#454e56"/></g><g transform="translate(-60 -1440)"><circle cx="5" cy="5" r="5" transform="translate(210 1470)" fill="#454e56"/></g><g transform="translate(-30 -1440)"><circle cx="5" cy="5" r="5" transform="translate(210 1470)" fill="#454e56"/></g><g transform="translate(0 -1440)"><circle cx="5" cy="5" r="5" transform="translate(210 1470)" fill="#454e56"/></g><g transform="translate(30 -1440)"><circle cx="5" cy="5" r="5" transform="translate(210 1470)" fill="#454e56"/></g><g transform="translate(60 -1440)"><circle cx="5" cy="5" r="5" transform="translate(210 1470)" fill="#454e56"/></g><g transform="translate(90 -1440)"><circle cx="5" cy="5" r="5" transform="translate(210 1470)" fill="#454e56"/></g><g transform="translate(120 -1440)"><circle cx="5" cy="5" r="5" transform="translate(210 1470)" fill="#454e56"/></g><g transform="translate(-210 -1410)"><circle cx="5" cy="5" r="5" transform="translate(210 1470)" fill="#454e56"/></g><g transform="translate(-180 -1410)"><circle cx="5" cy="5" r="5" transform="translate(210 1470)" fill="#454e56"/></g><g transform="translate(-150 -1410)"><circle cx="5" cy="5" r="5" transform="translate(210 1470)" fill="#454e56"/></g><g transform="translate(-120 -1410)"><circle cx="5" cy="5" r="5" transform="translate(210 1470)" fill="#454e56"/></g><g transform="translate(-90 -1410)"><circle cx="5" cy="5" r="5" transform="translate(210 1470)" fill="#454e56"/></g><g transform="translate(-60 -1410)"><circle cx="5" cy="5" r="5" transform="translate(210 1470)" fill="#454e56"/></g><g transform="translate(-30 -1410)"><circle cx="5" cy="5" r="5" transform="translate(210 1470)" fill="#454e56"/></g><g transform="translate(0 -1410)"><circle cx="5" cy="5" r="5" transform="translate(210 1470)" fill="#454e56"/></g><g transform="translate(30 -1410)"><circle cx="5" cy="5" r="5" transform="translate(210 1470)" fill="#454e56"/></g><g transform="translate(60 -1410)"><circle cx="5" cy="5" r="5" transform="translate(210 1470)" fill="#454e56"/></g><g transform="translate(90 -1410)"><circle cx="5" cy="5" r="5" transform="translate(210 1470)" fill="#454e56"/></g><g transform="translate(120 -1410)"><circle cx="5" cy="5" r="5" transform="translate(210 1470)" fill="#454e56"/></g><g transform="translate(-210 -1380)"><circle cx="5" cy="5" r="5" transform="translate(210 1470)" fill="#454e56"/></g><g transform="translate(-180 -1380)"><circle cx="5" cy="5" r="5" transform="translate(210 1470)" fill="#454e56"/></g><g transform="translate(-150 -1380)"><circle cx="5" cy="5" r="5" transform="translate(210 1470)" fill="#454e56"/></g><g transform="translate(-120 -1380)"><circle cx="5" cy="5" r="5" transform="translate(210 1470)" fill="#454e56"/></g><g transform="translate(-90 -1380)"><circle cx="5" cy="5" r="5" transform="translate(210 1470)" fill="#454e56"/></g><g transform="translate(-60 -1380)"><circle cx="5" cy="5" r="5" transform="translate(210 1470)" fill="#454e56"/></g><g transform="translate(-30 -1380)"><circle cx="5" cy="5" r="5" transform="translate(210 1470)" fill="#454e56"/></g><g transform="translate(0 -1380)"><circle cx="5" cy="5" r="5" transform="translate(210 1470)" fill="#454e56"/></g><g transform="translate(30 -1380)"><circle cx="5" cy="5" r="5" transform="translate(210 1470)" fill="#454e56"/></g><g transform="translate(60 -1380)"><circle cx="5" cy="5" r="5" transform="translate(210 1470)" fill="#454e56"/></g><g transform="translate(90 -1380)"><circle cx="5" cy="5" r="5" transform="translate(210 1470)" fill="#454e56"/></g><g transform="translate(120 -1380)"><circle cx="5" cy="5" r="5" transform="translate(210 1470)" fill="#454e56"/></g><g transform="translate(-210 -1350)"><circle cx="5" cy="5" r="5" transform="translate(210 1470)" fill="#454e56"/></g><g transform="translate(-180 -1350)"><circle cx="5" cy="5" r="5" transform="translate(210 1470)" fill="#454e56"/></g><g transform="translate(-150 -1350)"><circle cx="5" cy="5" r="5" transform="translate(210 1470)" fill="#454e56"/></g><g transform="translate(-120 -1350)"><circle cx="5" cy="5" r="5" transform="translate(210 1470)" fill="#454e56"/></g><g transform="translate(-90 -1350)"><circle cx="5" cy="5" r="5" transform="translate(210 1470)" fill="#454e56"/></g><g transform="translate(-60 -1350)"><circle cx="5" cy="5" r="5" transform="translate(210 1470)" fill="#454e56"/></g><g transform="translate(-30 -1350)"><circle cx="5" cy="5" r="5" transform="translate(210 1470)" fill="#454e56"/></g><g transform="translate(0 -1350)"><circle cx="5" cy="5" r="5" transform="translate(210 1470)" fill="#454e56"/></g><g transform="translate(30 -1350)"><circle cx="5" cy="5" r="5" transform="translate(210 1470)" fill="#454e56"/></g><g transform="translate(60 -1350)"><circle cx="5" cy="5" r="5" transform="translate(210 1470)" fill="#454e56"/></g><g transform="translate(90 -1350)"><circle cx="5" cy="5" r="5" transform="translate(210 1470)" fill="#454e56"/></g><g transform="translate(120 -1350)"><circle cx="5" cy="5" r="5" transform="translate(210 1470)" fill="#454e56"/></g><g transform="translate(-210 -1320)"><circle cx="5" cy="5" r="5" transform="translate(210 1470)" fill="#454e56"/></g><g transform="translate(-180 -1320)"><circle cx="5" cy="5" r="5" transform="translate(210 1470)" fill="#454e56"/></g><g transform="translate(-150 -1320)"><circle cx="5" cy="5" r="5" transform="translate(210 1470)" fill="#454e56"/></g><g transform="translate(-120 -1320)"><circle cx="5" cy="5" r="5" transform="translate(210 1470)" fill="#454e56"/></g><g transform="translate(-90 -1320)"><circle cx="5" cy="5" r="5" transform="translate(210 1470)" fill="#454e56"/></g><g transform="translate(-60 -1320)"><circle cx="5" cy="5" r="5" transform="translate(210 1470)" fill="#454e56"/></g><g transform="translate(-30 -1320)"><circle cx="5" cy="5" r="5" transform="translate(210 1470)" fill="#454e56"/></g><g transform="translate(0 -1320)"><circle cx="5" cy="5" r="5" transform="translate(210 1470)" fill="#454e56"/></g><g transform="translate(30 -1320)"><circle cx="5" cy="5" r="5" transform="translate(210 1470)" fill="#454e56"/></g><g transform="translate(60 -1320)"><circle cx="5" cy="5" r="5" transform="translate(210 1470)" fill="#454e56"/></g><g transform="translate(90 -1320)"><circle cx="5" cy="5" r="5" transform="translate(210 1470)" fill="#454e56"/></g><g transform="translate(120 -1320)"><circle cx="5" cy="5" r="5" transform="translate(210 1470)" fill="#454e56"/></g><g transform="translate(-210 -1290)"><circle cx="5" cy="5" r="5" transform="translate(210 1470)" fill="#454e56"/></g><g transform="translate(-180 -1290)"><circle cx="5" cy="5" r="5" transform="translate(210 1470)" fill="#454e56"/></g><g transform="translate(-150 -1290)"><circle cx="5" cy="5" r="5" transform="translate(210 1470)" fill="#454e56"/></g><g transform="translate(-120 -1290)"><circle cx="5" cy="5" r="5" transform="translate(210 1470)" fill="#454e56"/></g><g transform="translate(-90 -1290)"><circle cx="5" cy="5" r="5" transform="translate(210 1470)" fill="#454e56"/></g><g transform="translate(-60 -1290)"><circle cx="5" cy="5" r="5" transform="translate(210 1470)" fill="#454e56"/></g><g transform="translate(-30 -1290)"><circle cx="5" cy="5" r="5" transform="translate(210 1470)" fill="#454e56"/></g><g transform="translate(0 -1290)"><circle cx="5" cy="5" r="5" transform="translate(210 1470)" fill="#454e56"/></g><g transform="translate(30 -1290)"><circle cx="5" cy="5" r="5" transform="translate(210 1470)" fill="#454e56"/></g><g transform="translate(60 -1290)"><circle cx="5" cy="5" r="5" transform="translate(210 1470)" fill="#454e56"/></g><g transform="translate(90 -1290)"><circle cx="5" cy="5" r="5" transform="translate(210 1470)" fill="#454e56"/></g><g transform="translate(120 -1290)"><circle cx="5" cy="5" r="5" transform="translate(210 1470)" fill="#454e56"/></g><g transform="translate(-210 -1260)"><circle cx="5" cy="5" r="5" transform="translate(210 1470)" fill="#454e56"/></g><g transform="translate(-180 -1260)"><circle cx="5" cy="5" r="5" transform="translate(210 1470)" fill="#454e56"/></g><g transform="translate(-150 -1260)"><circle cx="5" cy="5" r="5" transform="translate(210 1470)" fill="#454e56"/></g><g transform="translate(-120 -1260)"><circle cx="5" cy="5" r="5" transform="translate(210 1470)" fill="#454e56"/></g><g transform="translate(-90 -1260)"><circle cx="5" cy="5" r="5" transform="translate(210 1470)" fill="#454e56"/></g><g transform="translate(-60 -1260)"><circle cx="5" cy="5" r="5" transform="translate(210 1470)" fill="#454e56"/></g><g transform="translate(-30 -1260)"><circle cx="5" cy="5" r="5" transform="translate(210 1470)" fill="#454e56"/></g><g transform="translate(0 -1260)"><circle cx="5" cy="5" r="5" transform="translate(210 1470)" fill="#454e56"/></g><g transform="translate(30 -1260)"><circle cx="5" cy="5" r="5" transform="translate(210 1470)" fill="#454e56"/></g><g transform="translate(60 -1260)"><circle cx="5" cy="5" r="5" transform="translate(210 1470)" fill="#454e56"/></g><g transform="translate(90 -1260)"><circle cx="5" cy="5" r="5" transform="translate(210 1470)" fill="#454e56"/></g><g transform="translate(120 -1260)"><circle cx="5" cy="5" r="5" transform="translate(210 1470)" fill="#454e56"/></g><g transform="translate(-210 -1230)"><circle cx="5" cy="5" r="5" transform="translate(210 1470)" fill="#454e56"/></g><g transform="translate(-180 -1230)"><circle cx="5" cy="5" r="5" transform="translate(210 1470)" fill="#454e56"/></g><g transform="translate(-150 -1230)"><circle cx="5" cy="5" r="5" transform="translate(210 1470)" fill="#454e56"/></g><g transform="translate(-120 -1230)"><circle cx="5" cy="5" r="5" transform="translate(210 1470)" fill="#454e56"/></g><g transform="translate(-90 -1230)"><circle cx="5" cy="5" r="5" transform="translate(210 1470)" fill="#454e56"/></g><g transform="translate(-60 -1230)"><circle cx="5" cy="5" r="5" transform="translate(210 1470)" fill="#454e56"/></g><g transform="translate(-30 -1230)"><circle cx="5" cy="5" r="5" transform="translate(210 1470)" fill="#454e56"/></g><g transform="translate(0 -1230)"><circle cx="5" cy="5" r="5" transform="translate(210 1470)" fill="#454e56"/></g><g transform="translate(30 -1230)"><circle cx="5" cy="5" r="5" transform="translate(210 1470)" fill="#454e56"/></g><g transform="translate(60 -1230)"><circle cx="5" cy="5" r="5" transform="translate(210 1470)" fill="#454e56"/></g><g transform="translate(90 -1230)"><circle cx="5" cy="5" r="5" transform="translate(210 1470)" fill="#454e56"/></g><g transform="translate(120 -1230)"><circle cx="5" cy="5" r="5" transform="translate(210 1470)" fill="#454e56"/></g><g transform="translate(-210 -1200)"><circle cx="5" cy="5" r="5" transform="translate(210 1470)" fill="#454e56"/></g><g transform="translate(-180 -1200)"><circle cx="5" cy="5" r="5" transform="translate(210 1470)" fill="#454e56"/></g><g transform="translate(-150 -1200)"><circle cx="5" cy="5" r="5" transform="translate(210 1470)" fill="#454e56"/></g><g transform="translate(-120 -1200)"><circle cx="5" cy="5" r="5" transform="translate(210 1470)" fill="#454e56"/></g><g transform="translate(-90 -1200)"><circle cx="5" cy="5" r="5" transform="translate(210 1470)" fill="#454e56"/></g><g transform="translate(-60 -1200)"><circle cx="5" cy="5" r="5" transform="translate(210 1470)" fill="#454e56"/></g><g transform="translate(-30 -1200)"><circle cx="5" cy="5" r="5" transform="translate(210 1470)" fill="#454e56"/></g><g transform="translate(0 -1200)"><circle cx="5" cy="5" r="5" transform="translate(210 1470)" fill="#454e56"/></g><g transform="translate(30 -1200)"><circle cx="5" cy="5" r="5" transform="translate(210 1470)" fill="#454e56"/></g><g transform="translate(60 -1200)"><circle cx="5" cy="5" r="5" transform="translate(210 1470)" fill="#454e56"/></g><g transform="translate(90 -1200)"><circle cx="5" cy="5" r="5" transform="translate(210 1470)" fill="#454e56"/></g><g transform="translate(120 -1200)"><circle cx="5" cy="5" r="5" transform="translate(210 1470)" fill="#454e56"/></g><g transform="translate(-210 -1170)"><circle cx="5" cy="5" r="5" transform="translate(210 1470)" fill="#454e56"/></g><g transform="translate(-180 -1170)"><circle cx="5" cy="5" r="5" transform="translate(210 1470)" fill="#454e56"/></g><g transform="translate(-150 -1170)"><circle cx="5" cy="5" r="5" transform="translate(210 1470)" fill="#454e56"/></g><g transform="translate(-120 -1170)"><circle cx="5" cy="5" r="5" transform="translate(210 1470)" fill="#454e56"/></g><g transform="translate(-90 -1170)"><circle cx="5" cy="5" r="5" transform="translate(210 1470)" fill="#454e56"/></g><g transform="translate(-60 -1170)"><circle cx="5" cy="5" r="5" transform="translate(210 1470)" fill="#454e56"/></g><g transform="translate(-30 -1170)"><circle cx="5" cy="5" r="5" transform="translate(210 1470)" fill="#454e56"/></g><g transform="translate(0 -1170)"><circle cx="5" cy="5" r="5" transform="translate(210 1470)" fill="#454e56"/></g><g transform="translate(30 -1170)"><circle cx="5" cy="5" r="5" transform="translate(210 1470)" fill="#454e56"/></g><g transform="translate(60 -1170)"><circle cx="5" cy="5" r="5" transform="translate(210 1470)" fill="#454e56"/></g><g transform="translate(90 -1170)"><circle cx="5" cy="5" r="5" transform="translate(210 1470)" fill="#454e56"/></g><g transform="translate(120 -1170)"><circle cx="5" cy="5" r="5" transform="translate(210 1470)" fill="#454e56"/></g><g transform="translate(-210 -1140)"><circle cx="5" cy="5" r="5" transform="translate(210 1470)" fill="#454e56"/></g><g transform="translate(-180 -1140)"><circle cx="5" cy="5" r="5" transform="translate(210 1470)" fill="#454e56"/></g><g transform="translate(-150 -1140)"><circle cx="5" cy="5" r="5" transform="translate(210 1470)" fill="#454e56"/></g><g transform="translate(-120 -1140)"><circle cx="5" cy="5" r="5" transform="translate(210 1470)" fill="#454e56"/></g><g transform="translate(-90 -1140)"><circle cx="5" cy="5" r="5" transform="translate(210 1470)" fill="#454e56"/></g><g transform="translate(-60 -1140)"><circle cx="5" cy="5" r="5" transform="translate(210 1470)" fill="#454e56"/></g><g transform="translate(-30 -1140)"><circle cx="5" cy="5" r="5" transform="translate(210 1470)" fill="#454e56"/></g><g transform="translate(0 -1140)"><circle cx="5" cy="5" r="5" transform="translate(210 1470)" fill="#454e56"/></g><g transform="translate(30 -1140)"><circle cx="5" cy="5" r="5" transform="translate(210 1470)" fill="#454e56"/></g><g transform="translate(60 -1140)"><circle cx="5" cy="5" r="5" transform="translate(210 1470)" fill="#454e56"/></g><g transform="translate(90 -1140)"><circle cx="5" cy="5" r="5" transform="translate(210 1470)" fill="#454e56"/></g><g transform="translate(120 -1140)"><circle cx="5" cy="5" r="5" transform="translate(210 1470)" fill="#454e56"/></g></g></svg>