<svg xmlns="http://www.w3.org/2000/svg" xmlns:xlink="http://www.w3.org/1999/xlink" width="313.307" height="343.969" viewBox="0 0 313.307 343.969"><defs><clipPath id="a"><rect width="313.307" height="343.969" fill="none"/></clipPath></defs><g opacity="0.151" clip-path="url(#a)"><g transform="translate(-278 -1456.385)"><path d="M-3004,17015.854c48.968,0,50.919-33.969,95.307-33.969" transform="translate(3282 -15524)" fill="none" stroke="#454e56" stroke-width="3"/></g><g transform="translate(-172 -1456.385)"><path d="M-3004,17015.854c48.968,0,50.919-33.969,95.307-33.969" transform="translate(3282 -15524)" fill="none" stroke="#454e56" stroke-width="3"/></g><g transform="translate(-66 -1456.385)"><path d="M-3004,17015.854c48.968,0,50.919-33.969,95.307-33.969" transform="translate(3282 -15524)" fill="none" stroke="#454e56" stroke-width="3"/></g><g transform="translate(-278 -1427.385)"><path d="M-3004,17015.854c48.968,0,50.919-33.969,95.307-33.969" transform="translate(3282 -15524)" fill="none" stroke="#454e56" stroke-width="3"/></g><g transform="translate(-172 -1427.385)"><path d="M-3004,17015.854c48.968,0,50.919-33.969,95.307-33.969" transform="translate(3282 -15524)" fill="none" stroke="#454e56" stroke-width="3"/></g><g transform="translate(-66 -1427.385)"><path d="M-3004,17015.854c48.968,0,50.919-33.969,95.307-33.969" transform="translate(3282 -15524)" fill="none" stroke="#454e56" stroke-width="3"/></g><g transform="translate(-278 -1398.385)"><path d="M-3004,17015.854c48.968,0,50.919-33.969,95.307-33.969" transform="translate(3282 -15524)" fill="none" stroke="#454e56" stroke-width="3"/></g><g transform="translate(-172 -1398.385)"><path d="M-3004,17015.854c48.968,0,50.919-33.969,95.307-33.969" transform="translate(3282 -15524)" fill="none" stroke="#454e56" stroke-width="3"/></g><g transform="translate(-66 -1398.385)"><path d="M-3004,17015.854c48.968,0,50.919-33.969,95.307-33.969" transform="translate(3282 -15524)" fill="none" stroke="#454e56" stroke-width="3"/></g><g transform="translate(-278 -1369.385)"><path d="M-3004,17015.854c48.968,0,50.919-33.969,95.307-33.969" transform="translate(3282 -15524)" fill="none" stroke="#454e56" stroke-width="3"/></g><g transform="translate(-172 -1369.385)"><path d="M-3004,17015.854c48.968,0,50.919-33.969,95.307-33.969" transform="translate(3282 -15524)" fill="none" stroke="#454e56" stroke-width="3"/></g><g transform="translate(-66 -1369.385)"><path d="M-3004,17015.854c48.968,0,50.919-33.969,95.307-33.969" transform="translate(3282 -15524)" fill="none" stroke="#454e56" stroke-width="3"/></g><g transform="translate(-278 -1340.385)"><path d="M-3004,17015.854c48.968,0,50.919-33.969,95.307-33.969" transform="translate(3282 -15524)" fill="none" stroke="#454e56" stroke-width="3"/></g><g transform="translate(-172 -1340.385)"><path d="M-3004,17015.854c48.968,0,50.919-33.969,95.307-33.969" transform="translate(3282 -15524)" fill="none" stroke="#454e56" stroke-width="3"/></g><g transform="translate(-66 -1340.385)"><path d="M-3004,17015.854c48.968,0,50.919-33.969,95.307-33.969" transform="translate(3282 -15524)" fill="none" stroke="#454e56" stroke-width="3"/></g><g transform="translate(-278 -1311.385)"><path d="M-3004,17015.854c48.968,0,50.919-33.969,95.307-33.969" transform="translate(3282 -15524)" fill="none" stroke="#454e56" stroke-width="3"/></g><g transform="translate(-172 -1311.385)"><path d="M-3004,17015.854c48.968,0,50.919-33.969,95.307-33.969" transform="translate(3282 -15524)" fill="none" stroke="#454e56" stroke-width="3"/></g><g transform="translate(-66 -1311.385)"><path d="M-3004,17015.854c48.968,0,50.919-33.969,95.307-33.969" transform="translate(3282 -15524)" fill="none" stroke="#454e56" stroke-width="3"/></g><g transform="translate(-278 -1282.385)"><path d="M-3004,17015.854c48.968,0,50.919-33.969,95.307-33.969" transform="translate(3282 -15524)" fill="none" stroke="#454e56" stroke-width="3"/></g><g transform="translate(-172 -1282.385)"><path d="M-3004,17015.854c48.968,0,50.919-33.969,95.307-33.969" transform="translate(3282 -15524)" fill="none" stroke="#454e56" stroke-width="3"/></g><g transform="translate(-66 -1282.385)"><path d="M-3004,17015.854c48.968,0,50.919-33.969,95.307-33.969" transform="translate(3282 -15524)" fill="none" stroke="#454e56" stroke-width="3"/></g><g transform="translate(-278 -1253.385)"><path d="M-3004,17015.854c48.968,0,50.919-33.969,95.307-33.969" transform="translate(3282 -15524)" fill="none" stroke="#454e56" stroke-width="3"/></g><g transform="translate(-172 -1253.385)"><path d="M-3004,17015.854c48.968,0,50.919-33.969,95.307-33.969" transform="translate(3282 -15524)" fill="none" stroke="#454e56" stroke-width="3"/></g><g transform="translate(-66 -1253.385)"><path d="M-3004,17015.854c48.968,0,50.919-33.969,95.307-33.969" transform="translate(3282 -15524)" fill="none" stroke="#454e56" stroke-width="3"/></g><g transform="translate(-278 -1224.385)"><path d="M-3004,17015.854c48.968,0,50.919-33.969,95.307-33.969" transform="translate(3282 -15524)" fill="none" stroke="#454e56" stroke-width="3"/></g><g transform="translate(-172 -1224.385)"><path d="M-3004,17015.854c48.968,0,50.919-33.969,95.307-33.969" transform="translate(3282 -15524)" fill="none" stroke="#454e56" stroke-width="3"/></g><g transform="translate(-66 -1224.385)"><path d="M-3004,17015.854c48.968,0,50.919-33.969,95.307-33.969" transform="translate(3282 -15524)" fill="none" stroke="#454e56" stroke-width="3"/></g><g transform="translate(-278 -1195.385)"><path d="M-3004,17015.854c48.968,0,50.919-33.969,95.307-33.969" transform="translate(3282 -15524)" fill="none" stroke="#454e56" stroke-width="3"/></g><g transform="translate(-172 -1195.385)"><path d="M-3004,17015.854c48.968,0,50.919-33.969,95.307-33.969" transform="translate(3282 -15524)" fill="none" stroke="#454e56" stroke-width="3"/></g><g transform="translate(-66 -1195.385)"><path d="M-3004,17015.854c48.968,0,50.919-33.969,95.307-33.969" transform="translate(3282 -15524)" fill="none" stroke="#454e56" stroke-width="3"/></g><g transform="translate(-278 -1166.385)"><path d="M-3004,17015.854c48.968,0,50.919-33.969,95.307-33.969" transform="translate(3282 -15524)" fill="none" stroke="#454e56" stroke-width="3"/></g><g transform="translate(-172 -1166.385)"><path d="M-3004,17015.854c48.968,0,50.919-33.969,95.307-33.969" transform="translate(3282 -15524)" fill="none" stroke="#454e56" stroke-width="3"/></g><g transform="translate(-66 -1166.385)"><path d="M-3004,17015.854c48.968,0,50.919-33.969,95.307-33.969" transform="translate(3282 -15524)" fill="none" stroke="#454e56" stroke-width="3"/></g><g transform="translate(-278 -1137.385)"><path d="M-3004,17015.854c48.968,0,50.919-33.969,95.307-33.969" transform="translate(3282 -15524)" fill="none" stroke="#454e56" stroke-width="3"/></g><g transform="translate(-172 -1137.385)"><path d="M-3004,17015.854c48.968,0,50.919-33.969,95.307-33.969" transform="translate(3282 -15524)" fill="none" stroke="#454e56" stroke-width="3"/></g><g transform="translate(-66 -1137.385)"><path d="M-3004,17015.854c48.968,0,50.919-33.969,95.307-33.969" transform="translate(3282 -15524)" fill="none" stroke="#454e56" stroke-width="3"/></g></g></svg>