<svg xmlns="http://www.w3.org/2000/svg" viewBox="0 0 487.11 136.45"><defs><style>.cls-1{fill:#430098;}</style></defs><title>Asset 1</title><g id="Layer_2" data-name="Layer 2"><g id="Layer_1-2" data-name="Layer 1"><g id="Page-1"><g id="main"><g id="nav"><path id="logo" class="cls-1" d="M110.18,0H12.28A12.23,12.23,0,0,0,0,12.28V124.17a12.23,12.23,0,0,0,12.28,12.28h97.9a12.23,12.23,0,0,0,12.28-12.28V12.28A12.23,12.23,0,0,0,110.18,0Zm5.46,124.17a5.38,5.38,0,0,1-5.46,5.45H12.28a5.38,5.38,0,0,1-5.46-5.45V12.28a5.39,5.39,0,0,1,5.46-5.46h97.9a5.39,5.39,0,0,1,5.46,5.46V124.17ZM30.7,116l15.35-13.65L30.7,88.69ZM86,60.72c-2.73-2.73-7.84-6.14-16.37-6.14C60.38,54.58,50.83,57,44,59.35V20.47H30.7v59l9.55-4.43s15.69-7.17,29.34-7.17c6.82,0,8.53,3.75,8.53,7.17V116H91.76V75.05A20.76,20.76,0,0,0,86,60.72ZM67.88,42.64H81.53c6.14-7.16,9.21-14.33,10.23-22.17H78.12C76.75,28.31,73.34,35.48,67.88,42.64ZM444.81,74.7V44.34h13.65v30c0,6.83,2.38,10.24,7.84,10.24s7.51-3.07,7.51-10.24v-30h13.3V74.7c0,13.31-6.48,21.15-21.15,21.15S444.81,88,444.81,74.7Zm-57.31-30h13.65V63.11l14-18.42h15.7L413.77,64.47l18.42,30.7H416.84L404.9,75.05l-3.75,4.43V95.17H387.5V44.69Zm-64.81,24.9c0-18.42,12.62-26.27,24.9-26.27s24.91,7.85,24.91,26.27-12.63,26.26-24.91,26.26S322.69,88.35,322.69,69.59Zm35.82,0c0-9.21-4.09-15-11.26-15S336,60.38,336,69.59s4.09,15.35,11.25,15.35S358.51,79.14,358.51,69.59Zm-90.74-24.9h19.79c13,0,20.81,4.43,20.81,16.37,0,7.84-3.41,12.62-9.9,14.67l10.58,19.44H294.72l-9.89-17.4h-3.75v17.4H267.77V44.69ZM287.22,67.2c5.46,0,8.18-1.71,8.18-5.8s-2.38-5.8-8.18-5.8h-5.8V67.2ZM215.58,44.69h36.16V55.94H229.23v8.19h16V74.7h-16v9.21h23.53V94.83H215.58V44.69Zm-61.74,0h13.65V63.45H184.2V44.69h13.65V95.17H184.2V74.7H167.49V95.17H153.84V44.69Z"/></g></g></g></g></g></svg>