<svg xmlns="http://www.w3.org/2000/svg" viewBox="0 0 250.1 48.1"><defs><style>.cls-1,.cls-2{fill:#fff;}.cls-2{font-size:36px;font-family:Montserrat-SemiBold, Montserrat;font-weight:600;}.cls-3{letter-spacing:-0.01em;}.cls-4{letter-spacing:0em;}.cls-5{letter-spacing:0.01em;}.cls-6{letter-spacing:0em;}</style></defs><g id="Layer_2" data-name="Layer 2"><g id="Layer_1-2" data-name="Layer 1"><g id="_5UEsim.tif" data-name="5UEsim.tif"><path class="cls-1" d="M26.43,34.09a30.19,30.19,0,0,1,20.43,8c.54.48.6.85.07,1.33L42.2,47.77c-.45.43-.81.42-1.32,0A21.7,21.7,0,0,0,12,47.8c-.39.32-.68.45-1.09.07-1.65-1.56-3.31-3.12-5-4.66-.46-.42-.35-.72.08-1.1A30.11,30.11,0,0,1,26.43,34.09Z"/><path class="cls-1" d="M38.15,2.57c-.16,1.2-.33,2.16-.4,3.13A21.71,21.71,0,0,0,52.32,28c.6.22.86.5.71,1.13-.49,2.09-1,4.19-1.47,6.28-.16.66-.56.84-1.23.61C41,32.81,34.57,26.67,31.16,17.42A29,29,0,0,1,30.11,1c.22-1,.37-1.17,1.35-.88,2,.61,4,1.26,6,1.94C37.8,2.16,38,2.47,38.15,2.57Z"/><path class="cls-1" d="M23.81,7.37A30.38,30.38,0,0,1,3.34,35.78c-1.6.54-1.66.56-2.08-1.08C.79,32.85.45,31,0,29.11c-.14-.6.1-.88.66-1.08a21.55,21.55,0,0,0,13.94-15,20.47,20.47,0,0,0,.3-10,1,1,0,0,1,.42-.88C17.54,1.42,19.74.74,21.93.05c.57-.17.84.1.92.67C23.16,2.94,23.49,5.16,23.81,7.37Z"/><path class="cls-1" d="M26.6,31.39a5.07,5.07,0,1,1,5.12-5.05A5.08,5.08,0,0,1,26.6,31.39Z"/></g><text class="cls-2" transform="translate(77.3 34.2)"><tspan class="cls-3">S</tspan><tspan x="22.28" y="0">ynt</tspan><tspan class="cls-4" x="83.02" y="0">a</tspan><tspan class="cls-5" x="105.05" y="0">c</tspan><tspan class="cls-6" x="126.21" y="0">tic</tspan></text></g></g></svg>